<svg width="15" height="9" viewBox="0 0 15 9" fill="none" xmlns="http://www.w3.org/2000/svg">
<path d="M0.931641 4C0.655498 4 0.431641 4.22386 0.431641 4.5C0.431641 4.77614 0.655498 5 0.931641 5L0.931641 4ZM14.2852 4.85355C14.4805 4.65829 14.4805 4.34171 14.2852 4.14645L11.1032 0.964467C10.908 0.769205 10.5914 0.769205 10.3961 0.964467C10.2008 1.15973 10.2008 1.47631 10.3961 1.67157L13.2245 4.5L10.3961 7.32843C10.2008 7.52369 10.2008 7.84027 10.3961 8.03553C10.5914 8.2308 10.908 8.2308 11.1032 8.03553L14.2852 4.85355ZM0.931641 5L13.9316 5L13.9316 4L0.931641 4L0.931641 5Z" fill="black"/>
</svg>
