<svg width="25" height="25" viewBox="0 0 25 25" fill="none" xmlns="http://www.w3.org/2000/svg">
<path d="M19.0414 3.5C19.5718 3.5 20.0805 3.71071 20.4556 4.08579C20.8307 4.46086 21.0414 4.96957 21.0414 5.5V19.5C21.0414 20.0304 20.8307 20.5391 20.4556 20.9142C20.0805 21.2893 19.5718 21.5 19.0414 21.5H5.04138C4.51095 21.5 4.00224 21.2893 3.62717 20.9142C3.2521 20.5391 3.04138 20.0304 3.04138 19.5V5.5C3.04138 4.96957 3.2521 4.46086 3.62717 4.08579C4.00224 3.71071 4.51095 3.5 5.04138 3.5H19.0414ZM18.5414 19V13.7C18.5414 12.8354 18.1979 12.0062 17.5865 11.3948C16.9752 10.7835 16.146 10.44 15.2814 10.44C14.4314 10.44 13.4414 10.96 12.9614 11.74V10.63H10.1714V19H12.9614V14.07C12.9614 13.3 13.5814 12.67 14.3514 12.67C14.7227 12.67 15.0788 12.8175 15.3413 13.0801C15.6039 13.3426 15.7514 13.6987 15.7514 14.07V19H18.5414ZM6.92138 9.06C7.36695 9.06 7.79426 8.883 8.10932 8.56794C8.42438 8.25288 8.60138 7.82556 8.60138 7.38C8.60138 6.45 7.85138 5.69 6.92138 5.69C6.47317 5.69 6.04331 5.86805 5.72637 6.18499C5.40943 6.50193 5.23138 6.93178 5.23138 7.38C5.23138 8.31 5.99138 9.06 6.92138 9.06ZM8.31138 19V10.63H5.54138V19H8.31138Z" fill="#FCFCFC"/>
</svg>
