<svg width="34" height="34" viewBox="0 0 34 34" fill="none" xmlns="http://www.w3.org/2000/svg">
<path opacity="0.2" d="M17 10.625H4.25V7.4375C4.25 7.15571 4.36194 6.88546 4.5612 6.6862C4.76046 6.48694 5.03071 6.375 5.3125 6.375H12.3104C12.5918 6.37513 12.8617 6.4869 13.0608 6.68578L17 10.625Z" fill="#3D8271"/>
<path d="M28.6875 9.56251H17.4396L13.8125 5.9354C13.6159 5.73722 13.3818 5.58009 13.124 5.47316C12.8661 5.36623 12.5896 5.31162 12.3104 5.31251H5.3125C4.74891 5.31251 4.20841 5.53639 3.8099 5.93491C3.41138 6.33342 3.1875 6.87393 3.1875 7.43751V26.6449C3.1882 27.1864 3.40364 27.7055 3.78656 28.0885C4.16948 28.4714 4.68863 28.6868 5.23016 28.6875H28.8057C29.3377 28.6868 29.8478 28.4752 30.2239 28.099C30.6001 27.7228 30.8118 27.2127 30.8125 26.6807V11.6875C30.8125 11.1239 30.5886 10.5834 30.1901 10.1849C29.7916 9.78639 29.2511 9.56251 28.6875 9.56251ZM12.3104 7.43751L14.4354 9.56251H5.3125V7.43751H12.3104ZM28.6875 26.5625H5.3125V11.6875H28.6875V26.5625Z" fill="#3D8271"/>
</svg>
