<svg width="35" height="34" viewBox="0 0 35 34" fill="none" xmlns="http://www.w3.org/2000/svg">
<path d="M25.0625 6.64061C24.4031 6.63986 23.7575 6.8294 23.2031 7.18647V5.84373C23.2032 4.99156 22.8882 4.16946 22.3186 3.53556C21.7491 2.90166 20.9653 2.50074 20.118 2.40993C19.2707 2.31912 18.4197 2.54482 17.7288 3.04363C17.0378 3.54243 16.5557 4.2791 16.3752 5.11194C15.8561 4.75999 15.2509 4.55608 14.6247 4.52208C13.9984 4.48808 13.3747 4.62528 12.8206 4.91895C12.2664 5.21263 11.8027 5.65168 11.4792 6.18899C11.1557 6.72629 10.9846 7.34156 10.9844 7.96873V17.3984L9.98429 15.7914C9.52867 14.9969 8.7761 14.416 7.89214 14.1764C7.00819 13.9368 6.06525 14.0581 5.27077 14.5137C4.47629 14.9694 3.89535 15.7219 3.65574 16.6059C3.41614 17.4898 3.53749 18.4328 3.99312 19.2272C8.16343 28.0234 10.5209 31.6094 17.0937 31.6094C20.1219 31.6058 23.0251 30.4013 25.1663 28.2601C27.3076 26.1188 28.5121 23.2157 28.5156 20.1875V10.0937C28.5156 9.64026 28.4263 9.19123 28.2528 8.77228C28.0792 8.35333 27.8249 7.97266 27.5042 7.652C27.1836 7.33135 26.8029 7.077 26.3839 6.90346C25.965 6.72992 25.516 6.64061 25.0625 6.64061ZM26.9219 20.1875C26.9187 22.7931 25.8822 25.2911 24.0398 27.1335C22.1973 28.976 19.6994 30.0124 17.0937 30.0156C14.3047 30.0156 12.5104 29.3449 10.8848 27.698C9.09976 25.8984 7.47015 22.8437 5.41952 18.518L5.38898 18.4609C5.14241 18.0338 5.0756 17.5263 5.20325 17.0499C5.3309 16.5736 5.64255 16.1674 6.06964 15.9209C6.49673 15.6743 7.00428 15.6075 7.48063 15.7352C7.95698 15.8628 8.36311 16.1745 8.60968 16.6015L8.62296 16.6241L11.1039 20.6085C11.1952 20.7559 11.3322 20.8695 11.4939 20.932C11.6556 20.9945 11.8333 21.0026 12.0001 20.955C12.1668 20.9073 12.3134 20.8066 12.4178 20.6681C12.5221 20.5296 12.5784 20.3609 12.5781 20.1875V7.96873C12.5781 7.47559 12.774 7.00266 13.1227 6.65396C13.4714 6.30525 13.9444 6.10936 14.4375 6.10936C14.9306 6.10936 15.4036 6.30525 15.7523 6.65396C16.101 7.00266 16.2969 7.47559 16.2969 7.96873V15.9375C16.2969 16.1488 16.3808 16.3515 16.5303 16.501C16.6797 16.6504 16.8824 16.7344 17.0937 16.7344C17.3051 16.7344 17.5078 16.6504 17.6572 16.501C17.8067 16.3515 17.8906 16.1488 17.8906 15.9375V5.84373C17.8906 5.35059 18.0865 4.87766 18.4352 4.52896C18.7839 4.18025 19.2569 3.98436 19.75 3.98436C20.2431 3.98436 20.7161 4.18025 21.0648 4.52896C21.4135 4.87766 21.6094 5.35059 21.6094 5.84373V15.9375C21.6094 16.1488 21.6933 16.3515 21.8428 16.501C21.9922 16.6504 22.1949 16.7344 22.4062 16.7344C22.6176 16.7344 22.8203 16.6504 22.9697 16.501C23.1192 16.3515 23.2031 16.1488 23.2031 15.9375V10.0937C23.2031 9.60059 23.399 9.12766 23.7477 8.77895C24.0964 8.43025 24.5694 8.23436 25.0625 8.23436C25.5556 8.23436 26.0286 8.43025 26.3773 8.77895C26.726 9.12766 26.9219 9.60059 26.9219 10.0937V20.1875Z" fill="#3D8271"/>
</svg>
