<svg width="35" height="34" viewBox="0 0 35 34" fill="none" xmlns="http://www.w3.org/2000/svg">
<path d="M28.4944 15.7555C28.4646 15.628 28.4037 15.5097 28.3173 15.4113C28.2309 15.3128 28.1216 15.2372 27.999 15.1911L20.1325 12.2413L22.1247 2.28036C22.1587 2.11035 22.1363 1.93389 22.0609 1.77776C21.9856 1.62162 21.8613 1.49432 21.7071 1.41517C21.5528 1.33601 21.377 1.30933 21.2062 1.33915C21.0354 1.36898 20.879 1.45369 20.7607 1.58044L5.8857 17.5179C5.79636 17.6137 5.73202 17.73 5.69835 17.8566C5.66468 17.9832 5.66273 18.1161 5.69267 18.2436C5.72261 18.3711 5.78352 18.4893 5.87 18.5876C5.95649 18.686 6.06588 18.7615 6.18851 18.8075L14.055 21.7573L12.0628 31.7182C12.0286 31.8883 12.0508 32.0649 12.1261 32.2212C12.2013 32.3774 12.3256 32.5049 12.4798 32.5842C12.5926 32.6416 12.7172 32.6716 12.8437 32.6718C12.9531 32.6718 13.0614 32.6493 13.1617 32.6057C13.262 32.562 13.3522 32.4982 13.4268 32.4182L28.3018 16.4807C28.391 16.3849 28.4552 16.2686 28.4888 16.1422C28.5224 16.0157 28.5243 15.8829 28.4944 15.7555ZM14.1719 29.2798L15.7457 21.4067C15.783 21.2212 15.7532 21.0285 15.6614 20.863C15.5697 20.6976 15.4221 20.5702 15.245 20.5036L7.86062 17.7344L20.0077 4.71879L18.4378 12.5932C18.4005 12.7787 18.4303 12.9714 18.5221 13.1369C18.6138 13.3024 18.7614 13.4298 18.9385 13.4964L26.3229 16.2655L14.1719 29.2798Z" fill="#3D8271"/>
<path d="M26.8657 27.7705L29.8995 30.8035L28.8972 31.8058L25.8641 28.772C24.7356 29.6767 23.3318 30.1688 21.8854 30.1667C18.3664 30.1667 15.5104 27.3107 15.5104 23.7917C15.5104 20.2727 18.3664 17.4167 21.8854 17.4167C25.4044 17.4167 28.2604 20.2727 28.2604 23.7917C28.2625 25.2382 27.7704 26.6419 26.8657 27.7705ZM25.4448 27.2449C26.3437 26.3204 26.8458 25.0812 26.8437 23.7917C26.8437 21.0526 24.6245 18.8334 21.8854 18.8334C19.1463 18.8334 16.9271 21.0526 16.9271 23.7917C16.9271 26.5309 19.1463 28.7501 21.8854 28.7501C23.1749 28.7521 24.4141 28.2501 25.3385 27.3511L25.4448 27.2449Z" fill="#638B81"/>
</svg>
