<svg width="28" height="28" viewBox="0 0 28 28" fill="none" xmlns="http://www.w3.org/2000/svg">
<g clip-path="url(#clip0_4_665)">
<path d="M24.4508 23.2859C21.8914 26.1734 18.1672 28 14 28C6.26719 28 0 21.7328 0 14H3.5C3.5 19.8023 8.19766 24.5 14 24.5C17.1992 24.5 20.0375 23.0508 21.957 20.7922L18.6648 17.5H28V26.8352L24.4508 23.2859ZM14 3.5C10.8008 3.5 7.9625 4.94922 6.04297 7.20781L9.33516 10.5H0V1.16484L3.54922 4.71406C6.10859 1.82656 9.83828 0 14 0C21.7328 0 28 6.26719 28 14H24.5C24.5 8.19766 19.8023 3.5 14 3.5Z" fill="#3D8271"/>
</g>
<defs>
<clipPath id="clip0_4_665">
<rect width="28" height="28" fill="white" transform="matrix(1 0 0 -1 0 28)"/>
</clipPath>
</defs>
</svg>
