<svg width="28" height="28" viewBox="0 0 28 28" fill="none" xmlns="http://www.w3.org/2000/svg">
<path d="M20.1579 3.38537C20.0006 3.22659 19.8139 3.10064 19.6084 3.01472C19.4029 2.92881 19.1827 2.88461 18.9603 2.88464H4.98589C4.66467 2.88457 4.34659 2.94841 4.04982 3.07252C3.75304 3.19662 3.48339 3.37855 3.25626 3.60792C3.02912 3.8373 2.84897 4.10961 2.72608 4.40931C2.60319 4.70901 2.53997 5.03023 2.54004 5.35461V22.6454C2.53997 22.9698 2.60319 23.291 2.72608 23.5907C2.84897 23.8904 3.02912 24.1628 3.25626 24.3921C3.48339 24.6215 3.75304 24.8034 4.04982 24.9275C4.34659 25.0516 4.66467 25.1155 4.98589 25.1154H22.1079C22.7559 25.1134 23.3769 24.8526 23.8352 24.3898C24.2934 23.927 24.5518 23.2999 24.5537 22.6454V8.53318C24.5537 8.3086 24.51 8.08621 24.4249 7.87871C24.3398 7.67121 24.2151 7.48267 24.0579 7.32385L20.1579 3.38537ZM13.5469 22.5503C12.877 22.5503 12.2223 22.3497 11.6653 21.9739C11.1084 21.5981 10.6743 21.064 10.418 20.439C10.1616 19.8141 10.0946 19.1264 10.2252 18.463C10.3559 17.7995 10.6785 17.1901 11.1521 16.7118C11.6257 16.2335 12.2292 15.9078 12.8862 15.7758C13.5431 15.6438 14.2241 15.7116 14.8429 15.9704C15.4618 16.2293 15.9907 16.6677 16.3628 17.2301C16.735 17.7925 16.9336 18.4538 16.9336 19.1302C16.9342 19.5795 16.8469 20.0245 16.6769 20.4397C16.5069 20.8549 16.2575 21.2321 15.9429 21.5498C15.6283 21.8675 15.2547 22.1195 14.8436 22.2911C14.4324 22.4628 13.9918 22.5509 13.5469 22.5503ZM16.0869 10.5799H5.92676C5.7022 10.5799 5.48685 10.4898 5.32807 10.3295C5.16928 10.1691 5.08008 9.95165 5.08008 9.72488V6.30476C5.08008 6.07799 5.16928 5.86051 5.32807 5.70016C5.48685 5.53982 5.7022 5.44973 5.92676 5.44973H16.0869C16.3115 5.44973 16.5268 5.53982 16.6856 5.70016C16.8444 5.86051 16.9336 6.07799 16.9336 6.30476V9.72488C16.9336 9.95165 16.8444 10.1691 16.6856 10.3295C16.5268 10.4898 16.3115 10.5799 16.0869 10.5799Z" stroke="#3D8271" stroke-width="1.71006" stroke-linecap="round" stroke-linejoin="round"/>
</svg>
