<svg width="35" height="34" viewBox="0 0 35 34" fill="none" xmlns="http://www.w3.org/2000/svg">
<path d="M25.6376 23.5408L31.7052 29.607L29.7006 31.6115L23.6345 25.544C21.3774 27.3534 18.5699 28.3375 15.6771 28.3334C8.63906 28.3334 2.92706 22.6214 2.92706 15.5834C2.92706 8.54537 8.63906 2.83337 15.6771 2.83337C22.7151 2.83337 28.4271 8.54537 28.4271 15.5834C28.4312 18.4762 27.447 21.2837 25.6376 23.5408ZM22.7958 22.4896C24.5937 20.6407 25.5978 18.1623 25.5937 15.5834C25.5937 10.1051 21.1553 5.66671 15.6771 5.66671C10.1988 5.66671 5.7604 10.1051 5.7604 15.5834C5.7604 21.0616 10.1988 25.5 15.6771 25.5C18.256 25.5041 20.7344 24.5 22.5833 22.7021L22.7958 22.4896Z" fill="#3D8271"/>
</svg>
