<svg width="26" height="26" viewBox="0 0 26 26" fill="none" xmlns="http://www.w3.org/2000/svg">
<path d="M7.58333 19.375L18.9167 19.375L13.25 13.7083L7.58333 19.375ZM26 22.9167C26 23.6958 25.7228 24.3626 25.1684 24.917C24.614 25.4714 23.9468 25.7491 23.1667 25.75L3.33333 25.75C2.55417 25.75 1.88739 25.4723 1.333 24.917C0.778611 24.3617 0.500944 23.6949 0.5 22.9167L0.499999 3.08333C0.499999 2.30417 0.777666 1.63692 1.333 1.08158C1.88833 0.526251 2.55511 0.249056 3.33333 0.25L23.1667 0.249999C23.9458 0.249999 24.6131 0.527194 25.1684 1.08158C25.7237 1.63597 26.0009 2.30322 26 3.08333L26 22.9167ZM23.1667 10.1667L3.33333 10.1667L3.33333 22.9167L23.1667 22.9167L23.1667 10.1667Z" fill="#6FD7BE"/>
</svg>
