<svg width="64" height="64" viewBox="0 0 64 64" fill="none" xmlns="http://www.w3.org/2000/svg">
<circle cx="32" cy="32" r="31" stroke="#6FD7BE" stroke-width="2"/>
<path d="M20.6666 43.3334C19.8875 43.3334 19.2207 43.0562 18.6663 42.5018C18.1119 41.9474 17.8343 41.2802 17.8333 40.5001V23.5001C17.8333 22.7209 18.111 22.0541 18.6663 21.4997C19.2216 20.9454 19.8884 20.6677 20.6666 20.6667H43.3333C44.1125 20.6667 44.7797 20.9444 45.3351 21.4997C45.8904 22.0551 46.1676 22.7219 46.1666 23.5001V40.5001C46.1666 41.2792 45.8895 41.9465 45.3351 42.5018C44.7807 43.0572 44.1134 43.3344 43.3333 43.3334H20.6666ZM32 33.4167L20.6666 26.3334V40.5001H43.3333V26.3334L32 33.4167ZM32 30.5834L43.3333 23.5001H20.6666L32 30.5834ZM20.6666 26.3334V23.5001V40.5001V26.3334Z" fill="#6FD7BE"/>
</svg>
