<svg width="64" height="64" viewBox="0 0 64 64" fill="none" xmlns="http://www.w3.org/2000/svg">
<circle cx="32" cy="32" r="31.2947" stroke="#6FD7BE" stroke-width="1.41053"/>
<path d="M32 24.2083C32.9393 24.2083 33.8401 24.5814 34.5043 25.2456C35.1685 25.9098 35.5416 26.8106 35.5416 27.7499C35.5416 28.215 35.45 28.6756 35.2721 29.1053C35.0941 29.535 34.8332 29.9254 34.5043 30.2543C34.1754 30.5831 33.785 30.844 33.3553 31.022C32.9256 31.2 32.4651 31.2916 32 31.2916C31.0607 31.2916 30.1598 30.9184 29.4956 30.2543C28.8315 29.5901 28.4583 28.6892 28.4583 27.7499C28.4583 26.8106 28.8315 25.9098 29.4956 25.2456C30.1598 24.5814 31.0607 24.2083 32 24.2083ZM32 17.8333C34.63 17.8333 37.1524 18.878 39.0121 20.7378C40.8719 22.5975 41.9166 25.1199 41.9166 27.7499C41.9166 35.1874 32 46.1666 32 46.1666C32 46.1666 22.0833 35.1874 22.0833 27.7499C22.0833 25.1199 23.1281 22.5975 24.9878 20.7378C26.8476 18.878 29.3699 17.8333 32 17.8333ZM32 20.6666C30.1214 20.6666 28.3197 21.4129 26.9913 22.7412C25.6629 24.0696 24.9166 25.8713 24.9166 27.7499C24.9166 29.1666 24.9166 31.9999 32 41.5058C39.0833 31.9999 39.0833 29.1666 39.0833 27.7499C39.0833 25.8713 38.337 24.0696 37.0087 22.7412C35.6803 21.4129 33.8786 20.6666 32 20.6666Z" fill="#6FD7BE"/>
</svg>
