<svg width="64" height="64" viewBox="0 0 64 64" fill="none" xmlns="http://www.w3.org/2000/svg">
<circle cx="32" cy="32" r="31" stroke="#6FD7BE" stroke-width="2"/>
<path d="M37.6667 17.8333H26.3333C25.5819 17.8333 24.8612 18.1318 24.3299 18.6631C23.7985 19.1945 23.5 19.9151 23.5 20.6666V43.3333C23.5 44.0847 23.7985 44.8054 24.3299 45.3367C24.8612 45.8681 25.5819 46.1666 26.3333 46.1666H37.6667C38.4181 46.1666 39.1388 45.8681 39.6701 45.3367C40.2015 44.8054 40.5 44.0847 40.5 43.3333V20.6666C40.5 19.9151 40.2015 19.1945 39.6701 18.6631C39.1388 18.1318 38.4181 17.8333 37.6667 17.8333ZM33.4167 44.7499H30.5833V43.3333H33.4167V44.7499ZM37.6667 41.9166H26.3333V22.0833H37.6667V41.9166Z" fill="#6FD7BE"/>
</svg>
